<svg width="22" height="20" viewBox="0 0 22 20" fill="none" xmlns="http://www.w3.org/2000/svg">
<path d="M11.0001 20C9.7501 20 8.57927 19.7625 7.4876 19.2875C6.39593 18.8125 5.44593 18.1708 4.6376 17.3625C3.82926 16.5542 3.1876 15.6042 2.7126 14.5125C2.2376 13.4208 2.0001 12.25 2.0001 11C2.0001 9.75001 2.2376 8.57917 2.7126 7.48751C3.1876 6.39584 3.82926 5.44584 4.6376 4.63751C5.44593 3.82917 6.39593 3.18751 7.4876 2.71251C8.57927 2.23751 9.7501 2.00001 11.0001 2.00001C12.2501 2.00001 13.4209 2.23751 14.5126 2.71251C15.6043 3.18751 16.5543 3.82917 17.3626 4.63751C18.1709 5.44584 18.8126 6.39584 19.2876 7.48751C19.7626 8.57917 20.0001 9.75001 20.0001 11C20.0001 12.25 19.7626 13.4208 19.2876 14.5125C18.8126 15.6042 18.1709 16.5542 17.3626 17.3625C16.5543 18.1708 15.6043 18.8125 14.5126 19.2875C13.4209 19.7625 12.2501 20 11.0001 20ZM13.8001 15.2L15.2001 13.8L12.0001 10.6V6.00001H10.0001V11.4L13.8001 15.2ZM4.6001 0.350006L6.0001 1.75001L1.7501 6.00001L0.350098 4.60001L4.6001 0.350006ZM17.4001 0.350006L21.6501 4.60001L20.2501 6.00001L16.0001 1.75001L17.4001 0.350006ZM11.0001 18C12.9501 18 14.6043 17.3208 15.9626 15.9625C17.3209 14.6042 18.0001 12.95 18.0001 11C18.0001 9.05001 17.3209 7.39584 15.9626 6.03751C14.6043 4.67917 12.9501 4.00001 11.0001 4.00001C9.0501 4.00001 7.39593 4.67917 6.0376 6.03751C4.67926 7.39584 4.0001 9.05001 4.0001 11C4.0001 12.95 4.67926 14.6042 6.0376 15.9625C7.39593 17.3208 9.0501 18 11.0001 18Z" fill="black"/>
</svg>
